<svg xmlns="http://www.w3.org/2000/svg" shape-rendering="geometricPrecision" text-rendering="geometricPrecision" image-rendering="optimizeQuality" fill-rule="evenodd" clip-rule="evenodd" viewBox="0 0 362 512.61"><path fill-rule="nonzero" d="M181 0c49.93 0 95.18 20.26 127.95 53.02C341.75 85.84 362 131.08 362 181c0 49.98-20.26 95.23-53.02 127.99l-.54.5a181.238 181.238 0 0 1-54.38 37.13c-2.74-1.22-5.76-2.18-9.1-2.82l-2.71-.49-2.25-2.46a35.522 35.522 0 0 0-8-6.01c24.05-7.96 45.59-21.39 63.14-38.81l.42-.46c29.31-29.31 47.45-69.82 47.45-114.57 0-44.76-18.12-85.28-47.43-114.58-29.3-29.31-69.82-47.43-114.58-47.43-44.77 0-85.28 18.12-114.56 47.41C37.11 95.72 18.99 136.24 18.99 181c0 44.75 18.14 85.26 47.45 114.57 19.96 19.99 45.14 34.78 73.32 42.17v19.53c-33.4-7.79-63.26-24.84-86.72-48.3C20.26 276.23 0 230.98 0 181c0-49.93 20.26-95.18 53.02-127.95C85.84 20.25 131.07 0 181 0zm-22.73 418.95c-.25-.13-.57-.3-.82-.49a997.38 997.38 0 0 1-10.04-8.11c-4.55-3.74-9.79-8.05-13.48-11.09-2.49-2.06-5.38-3.5-8.06-4.06-1.74-.32-3.3-.32-4.56.19-.99.43-1.89 1.24-2.44 2.49-.75 1.68-1.13 4.06-.92 7.3.19 2.89 1.19 6 2.49 9.05 1.94 4.43 4.6 8.55 6.62 11.17.13.19.25.3.32.49l39.49 56.39c.49.75.81 1.56.87 2.37.81 6.5 2.18 11.43 4.19 14.48 1.5 2.25 3.37 3.38 5.8 3.31h62.14c3.87-.08 7.36-1.19 10.61-3.42 3.57-2.43 6.74-6.25 9.68-11.36.06-.06.13-.2.19-.25 1.11-1.93 2.62-4.42 4.05-6.81 6.31-10.36 11.79-19.41 12.41-32.26l-.38-17.71c-.07-.25-.05-.5-.05-.75 0-.26 0-1.94.05-4.18.14-11.72.32-26.2-10.42-28.01h-6.92c-.06 3.3-.25 6.68-.44 9.91-.19 2.94-.38 5.69-.36 8.37 0 2.86-2.3 5.17-5.17 5.17a5.16 5.16 0 0 1-5.18-5.17c0-2.7.19-5.81.38-9.05.69-11.04 1.51-23.71-7.3-25.27h-6.87c-.38 0-.75-.06-1.12-.14.05 4-.19 8.11-.44 12.12-.19 2.94-.38 5.68-.36 8.36 0 2.87-2.3 5.17-5.17 5.17a5.16 5.16 0 0 1-5.18-5.17c0-2.69.19-5.81.38-9.04.69-11.04 1.51-23.71-7.3-25.28h-6.87c-.49 0-.93-.05-1.38-.19v20.15c0 2.87-2.3 5.18-5.18 5.18-2.86 0-5.17-2.31-5.17-5.18l-.04-54.09c0-9.05-3.68-14.79-8.43-17.16-1.75-.87-3.63-1.31-5.43-1.31-1.79 0-3.67.44-5.41 1.31-4.68 2.35-8.3 8.11-8.31 17.4v94.78c0 2.87-2.3 5.17-5.17 5.17s-5.17-2.3-5.17-5.17v-9.63l-.13.02zm48.41-61.52c.43-.11.88-.19 1.38-.19h7.18c.38 0 .81.06 1.19.12 9.56 1.49 13.86 7.04 15.6 14.29.68-.3 1.43-.51 2.18-.51h7.2c.38 0 .81.06 1.19.11 10.28 1.63 14.41 7.93 15.9 15.92.25-.07.5-.06.81-.06h7.2c.38 0 .81.06 1.19.12 19.72 3.05 19.46 22.65 19.27 38.43v4.11l.44 18.24v.55c-.76 15.53-6.86 25.57-13.92 37.18-1.19 1.95-2.36 3.93-3.98 6.68-.06.06-.06.12-.13.19-3.69 6.44-7.94 11.35-12.79 14.73-4.92 3.41-10.42 5.17-16.4 5.24l-62.14.03c-6.18.12-10.99-2.54-14.54-7.86-2.87-4.24-4.75-10.24-5.74-17.72l-38.68-55.28-.18-.19c-2.32-3.06-5.45-7.88-7.81-13.16-1.75-3.98-3.05-8.3-3.37-12.54-.3-5.05.38-9.04 1.79-12.23 1.76-3.93 4.62-6.49 8.05-7.87 3.19-1.3 6.79-1.49 10.42-.74 4.38.87 8.85 3.06 12.67 6.24 3.11 2.62 8.36 6.85 13.48 11.04l4.24 3.49v-71.94c0-13.8 6.1-22.65 14.05-26.65 3.18-1.63 6.6-2.44 10.11-2.44s6.92.81 10.11 2.44c7.93 3.99 14.16 12.91 14.18 26.47v23.82l-.15-.06zm-26.51-220.62c10.94-11.4 18.61-21.27 35.47-23.2 31.66-3.63 60.78 28.78 44.8 60.69-4.56 9.08-13.82 19.89-24.07 30.49-11.24 11.64-23.69 23.05-32.41 31.7l-23.77 23.59-19.65-18.92c-23.65-22.76-62.19-51.41-63.46-86.91-.89-24.87 18.73-40.8 41.3-40.52 20.17.28 28.66 10.31 41.79 23.08z"/></svg>